<svg xmlns="http://www.w3.org/2000/svg" viewBox="0 0 64 64" id="RatingFood">
  <g fill="#ffffff" class="color000000 svgShape">
    <path d="M10.79,38.71a1,1,0,0,0,.71.29h41a1,1,0,0,0,.71-.29l4-4A1,1,0,0,0,56.5,33H53V31A21,21,0,0,0,35.37,10.3l.36-2.94a3,3,0,0,0-3-3.36h-1.5a3,3,0,0,0-3,3.36l.36,2.94A21,21,0,0,0,11,31v2H7.5a1,1,0,0,0-.71,1.71ZM30.26,7.12a1,1,0,0,1,1-1.12h1.5a1,1,0,0,1,1,1.12l-.35,3a14.35,14.35,0,0,0-2.78,0ZM13,31a19,19,0,0,1,38,0v2H13Zm41.09,4-2,2H11.91l-2-2Z" fill="#ffffff" class="color000000 svgShape"></path>
    <path d="M22 17.24a17.06 17.06 0 0 0-6.56 9.84 1 1 0 1 0 1.94.46 15 15 0 0 1 5.8-8.68A1 1 0 0 0 22 17.24zM52.39 42.05a1 1 0 0 0-1.79 0l-2.29 4.63-5.11.74a1 1 0 0 0-.56 1.71l3.7 3.61-.87 5.09a1 1 0 0 0 1.45 1.06l4.58-2.41 4.57 2.41a1 1 0 0 0 1.45-1.06l-.87-5.09 3.7-3.61a1 1 0 0 0-.56-1.71l-5.11-.74zm2.48 9.62a1 1 0 0 0-.28.89l.62 3.61L52 54.46a1 1 0 0 0-.93 0l-3.25 1.71.62-3.61a1 1 0 0 0-.28-.89l-2.63-2.56 3.63-.53a1 1 0 0 0 .75-.54l1.63-3.29L53.12 48a1 1 0 0 0 .75.54l3.63.53zM7.35 52.74l-.87 5.09a1 1 0 0 0 1.45 1.06l4.57-2.41 4.58 2.41a1 1 0 0 0 1.45-1.06l-.87-5.09 3.7-3.61a1 1 0 0 0-.56-1.71l-5.11-.74L13.4 42.05a1 1 0 0 0-1.79 0L9.32 46.68l-5.11.74a1 1 0 0 0-.56 1.71zm2.78-4.16a1 1 0 0 0 .75-.54l1.62-3.29L14.13 48a1 1 0 0 0 .75.54l3.63.53-2.63 2.56a1 1 0 0 0-.28.89l.62 3.61L13 54.46a1 1 0 0 0-.93 0L8.79 56.17l.62-3.61a1 1 0 0 0-.28-.89L6.5 49.11zM40.3 47.42l-5.12-.74L32.9 42.05a1 1 0 0 0-1.8 0l-2.28 4.63-5.12.74a1 1 0 0 0-.55 1.71l3.7 3.61L26 57.83a1 1 0 0 0 1.46 1.06L32 56.48l4.57 2.41A1 1 0 0 0 38 57.83l-.88-5.09 3.7-3.61A1 1 0 0 0 40.3 47.42zm-4.92 4.25a1 1 0 0 0-.29.89l.62 3.61-3.24-1.71a1 1 0 0 0-.94 0l-3.24 1.71.62-3.61a1 1 0 0 0-.29-.89L26 49.11l3.63-.53a1 1 0 0 0 .76-.54L32 44.75 33.62 48a1 1 0 0 0 .76.54l3.63.53z" fill="#ffffff" class="color000000 svgShape"></path>
  </g>
</svg>